<svg xmlns="http://www.w3.org/2000/svg" xmlns:xlink="http://www.w3.org/1999/xlink" width="400" height="400" viewBox="0 0 400 400"><defs><linearGradient id="gradient-13" x1="0%" y1="0%" x2="100%" y2="0%" gradientTransform="rotate(90.5, 0.5, 0.5)">       <stop offset="1.1%" stop-color="rgba(255, 207, 139, 0.50)"></stop>       <stop offset="81.3%" stop-color="rgba(255, 207, 139, 1)"></stop>     </linearGradient></defs>
<g data-name="container" data="container_num:1" fill="url(#gradient-13)" transform="translate(41.599999999999994, 41.599999999999994) scale(1.5799868680716065)"><path xmlns="http://www.w3.org/2000/svg" d="M100.254 0C44.974 0 0 44.974 0 100.254s44.974 100.254 100.254 100.254c55.28 0 100.254-44.974 100.254-100.254S155.534 0 100.254 0zm0 195.508C47.731 195.508 5 152.777 5 100.254S47.731 5 100.254 5s95.254 42.73 95.254 95.254-42.731 95.254-95.254 95.254z"></path><rect x="-3" y="-3" width="206.50799560546875" height="206.50799560546875" fill="transparent" pointer-events="all"></rect></g><g data-name="icon" fill="url(#gradient-13)" data="id:7957656" transform="translate(158.18311000729577, 116.49272055923085) scale(0.8363564240859022)">
  
 <path d="m91.398 57.098-4.7148-4.0742v-3.0234-0.003906l-0.003906-3.0234 4.7109-4.0703c3.3359-2.8828 4.1602-7.75 1.957-11.57l-5.5078-9.543c-2.2109-3.8242-6.8398-5.543-11-4.0898l-5.9219 2.0547-5.1992-3.0391-1.168-6.1094c-0.82422-4.332-4.625-7.4805-9.0391-7.4805h-11.023c-4.4141 0-8.2109 3.1445-9.0469 7.4766l-1.168 6.1133-5.1953 3.043-5.918-2.0586c-4.1602-1.4531-8.793 0.26953-11 4.0898l-5.5078 9.543c-2.2109 3.8203-1.3828 8.6875 1.9531 11.57l4.7109 4.0703-0.003906 3.0234 0.003906 3.0195-4.7109 4.0742c-3.3398 2.8828-4.1641 7.7461-1.957 11.57l5.5078 9.5469c2.207 3.8203 6.832 5.5391 11 4.0938l5.918-2.0586 5.1992 3.0391 1.1719 6.1172c0.82813 4.3281 4.6328 7.4766 9.0469 7.4766h11.023c4.4141 0 8.2148-3.1484 9.043-7.4766l1.168-6.1172 5.1992-3.0391 5.9219 2.0586c4.168 1.4492 8.7891-0.27344 11-4.0938l5.5078-9.5469c2.1992-3.8164 1.375-8.6836-1.957-11.562zm-3.4609 8.4414-5.5078 9.543c-0.71094 1.2266-2.1914 1.7812-3.5352 1.3203l-7.2773-2.5352c-0.87109-0.30078-1.8203-0.21094-2.6055 0.25391l-7.668 4.4844c-0.77734 0.45703-1.3203 1.2266-1.4922 2.1094l-1.4375 7.5078c-0.26562 1.3945-1.4844 2.4023-2.9023 2.4023h-11.023c-1.418 0-2.6406-1.0078-2.9062-2.4023l-1.4336-7.5078c-0.17188-0.88672-0.71484-1.6562-1.4922-2.1133l-7.668-4.4844c-0.48438-0.28516-1.0312-0.42969-1.5781-0.42969-0.34766 0-0.69531 0.058594-1.0273 0.17578l-7.2812 2.5352c-1.3359 0.46094-2.8242-0.089844-3.5312-1.3164l-5.5078-9.543c-0.71094-1.2266-0.44531-2.7891 0.62891-3.7109l5.7969-5.0117c0.6875-0.59375 1.0859-1.4609 1.082-2.3672l-0.003906-4.4453 0.003906-4.4492c0-0.91016-0.39453-1.7734-1.082-2.3672l-5.7969-5.0078c-1.0742-0.92969-1.3398-2.4922-0.62891-3.7188l5.5078-9.543c0.70703-1.2266 2.1914-1.7773 3.5312-1.3125l7.2812 2.5312c0.86719 0.29297 1.8203 0.19922 2.6055-0.25781l7.668-4.4805c0.78125-0.45703 1.3203-1.2266 1.4922-2.1094l1.4336-7.5078c0.26953-1.3945 1.4883-2.4062 2.9102-2.4062h11.023c1.4141 0 2.6367 1.0078 2.9023 2.4023l1.4375 7.5078c0.17188 0.88672 0.71484 1.6562 1.4922 2.1094l7.668 4.4805c0.78906 0.46094 1.7422 0.55469 2.6016 0.25391l7.2812-2.5312c1.3281-0.46094 2.8203 0.085938 3.5312 1.3164l5.5078 9.5391c0.71094 1.2266 0.44531 2.793-0.62891 3.7188l-5.793 5.0078c-0.6875 0.59375-1.082 1.4609-1.082 2.3672v4.4531l-0.003906 4.4453c0 0.91016 0.39453 1.7734 1.082 2.3672l5.7969 5.0117c1.0742 0.92578 1.3359 2.4883 0.62891 3.7148z"></path>
 <path d="m41.617 41.602c-1.0625-1.3672-3.0234-1.6094-4.3828-0.54687l-8.3203 6.4766c-0.76172 0.59375-1.207 1.5039-1.207 2.4688s0.44531 1.875 1.207 2.4648l8.3203 6.4766c0.57031 0.44531 1.2461 0.66016 1.918 0.66016 0.92969 0 1.8516-0.41406 2.4688-1.207 1.0586-1.3633 0.81641-3.3242-0.54688-4.3828l-5.1562-4.0117 5.1484-4.0078c1.3672-1.0625 1.6133-3.0234 0.55078-4.3906z"></path>
 <path d="m62.77 41.059c-1.3672-1.0625-3.3203-0.82031-4.3828 0.54688-1.0586 1.3633-0.81641 3.3242 0.54688 4.3828l5.1484 4.0117-5.1484 4.0078c-1.3633 1.0586-1.6055 3.0234-0.54688 4.3828 0.61719 0.78906 1.5391 1.207 2.4688 1.207 0.67188 0 1.3477-0.21094 1.9141-0.66016l8.3203-6.4766c0.75781-0.58984 1.207-1.5 1.207-2.4648s-0.44531-1.875-1.207-2.4648z"></path>
 <path d="m50 39.387c-1.7266 0-3.125 1.3984-3.125 3.125v14.973c0 1.7266 1.3984 3.125 3.125 3.125s3.125-1.3984 3.125-3.125v-14.973c0-1.7227-1.3984-3.125-3.125-3.125z"></path>

  <rect x="2.4169697761535645" y="0.12569522857666016" width="95.16383361816406" height="99.74950408935547" fill="transparent" pointer-events="all"></rect></g><g data-name="business_name" fill="url(#gradient-13)" data="id:51" transform="translate(99.6980983536459, 194.90927635720104) scale(1.0622950543592315)"><path d="M0.48,42.2l3.44,0q0.8,0,1.36-0.18t0.56-1.02l0-12.2l-4,0l0-5.8l11.04,0l0,18.68q0,2.16-0.72,3.56t-2.1,2.08t-3.38,0.68l-5.48,0z M36.48,28l0,20l-3.48,0l-1.8-2q-1.68,1.28-3.68,1.92t-4.28,0.64q-3,0-4.4-1.3t-1.4-4.14l0-15.12l7.04,0l0,15.72l2.96,0q1.12,0,1.56-0.32t0.44-1.08l0-14.32l7.04,0z M40.36,33.96q0-3.36,2.08-4.96t6.52-1.6q2.16,0,4.24,0.22t3.92,0.66l-0.84,4.88q-1-0.28-2.2-0.4t-2.52-0.12q-1.04,0-2.02,0.1t-1.66,0.26l0,2.24q2.96,0.32,4.92,0.82t3.12,1.28t1.68,1.88t0.52,2.7q0,2.32-1.02,3.8t-3.14,2.18t-5.52,0.7q-2.2,0-4.4-0.34t-4-0.98l0.92-5.12q2.88,1.2,6.44,1.2q0.68,0,1.44-0.08t1.72-0.28l0-2.32q-3.12-0.36-5.1-0.82t-3.1-1.2t-1.56-1.88t-0.44-2.82z M67.2,48.56q-2.36,0-3.5-0.98t-1.14-3.06l0-19.96l7.04-1.76l0,20.16q0.64,0.08,1.24,0.14t1.24,0.1l-0.32,4.76q-1.36,0.32-2.5,0.46t-2.06,0.14z M60.36,32.6l0-4.6l12.2,0l0,4.6l-12.2,0z M93.12,47.56q-1.52,0.52-3.24,0.78t-4.04,0.26q-3.04,0-5.08-0.66t-3.24-2.14t-1.72-4t-0.52-6.28t0.56-6.3t1.84-4.04t3.44-2.14t5.4-0.64q1.08,0,2.34,0.14t2.38,0.36t1.76,0.5l-0.88,5.6q-0.84-0.24-1.84-0.4t-1.92-0.26t-1.6-0.1q-2.2,0-3.06,0.56t-0.86,2.28l0,11.16q0.92,0.2,1.8,0.3t1.76,0.1q1.64,0,3.28-0.26t2.88-0.7z  M105.6,48.56q-2.72,0-4.64-0.6t-3.14-1.86t-1.8-3.28t-0.58-4.82q0-2.84,0.58-4.86t1.8-3.28t3.14-1.84t4.64-0.58t4.64,0.58t3.14,1.84t1.78,3.28t0.56,4.86q0,2.8-0.56,4.82t-1.78,3.28t-3.14,1.86t-4.64,0.6z M103,43.2l3.56,0q0.96,0,1.3-0.22t0.34-0.86l0-9.32l-3.56,0q-0.96,0-1.3,0.22t-0.34,0.86l0,9.32z M126.96,27.44q2.32,0,3.94,0.6t2.62,1.84t1.46,3.26t0.46,4.86q0,2.88-0.46,4.9t-1.46,3.28t-2.62,1.84t-3.94,0.58q-2.24,0-3.8-0.58t-2.56-1.86t-1.46-3.28t-0.46-4.88q0-2.84,0.46-4.86t1.46-3.28t2.56-1.84t3.8-0.58z M131.32,32.8l-3.48,0q-0.92,0-1.26,0.22t-0.34,0.86l0,9.36l3.44,0q0.96,0,1.3-0.22t0.34-0.86l0-9.36z M138.36,21.28l0,26.72l-3.48,0l-3.56-5.08l0-21.08z M152.16,48.56q-2.6,0-4.48-0.6t-3.08-1.88t-1.78-3.28t-0.58-4.8q0-3.76,1.06-6.08t3.28-3.4t5.74-1.08t5.48,0.6t2.78,2.04t0.82,3.96q0,1.88-0.58,3.14t-1.9,2.02t-3.56,1.08t-5.56,0.32l-1.2,0l0-3.68l3.56,0q1.64,0,2.26-0.38t0.62-1.42l0-2.48l-2.36,0q-1.64,0-2.26,0.36t-0.62,1.36l0,8.76q0.56,0.12,1.3,0.18t1.86,0.06q1.68,0,3.4-0.26t3.64-0.78l0.88,4.92q-1.96,0.64-4.16,0.98t-4.56,0.34z M165.68,23l7.04,0l0,25l-7.04,0l0-25z M183,48.56q-2.36,0-3.5-0.98t-1.14-3.06l0-19.96l7.04-1.76l0,20.16q0.64,0.08,1.24,0.14t1.24,0.1l-0.32,4.76q-1.36,0.32-2.5,0.46t-2.06,0.14z M176.16,32.6l0-4.6l12.2,0l0,4.6l-12.2,0z"></path><rect x="-2.5199999809265137" y="18.280000686645508" width="193.8800048828125" height="33.32000160217285" fill="transparent" pointer-events="all"></rect></g><g data-name="slogan" fill="url(#gradient-13)" data="id:318" transform="translate(126.89809906194269, 240.73010505178354) scale(0.8284441007275613)"><path d="M3.92,48l0-27.44l14.4,0q2.56,0,4.24,1t2.52,2.68t0.84,3.8q0,3-1.4,5.02t-3.52,2.74l5.88,12.2l-2.4,0l-5.68-11.8l-12.72,0l0,11.8l-2.16,0z M6.08,34.28l11.92,0q2.68,0,4.22-1.68t1.54-4.6q0-1.72-0.64-2.94t-1.92-1.9t-3.2-0.68l-11.92,0l0,11.8z M33.48,48l0-27.44l2.16,0l0,27.44l-2.16,0z M43.48,48l0-27.44l13.32,0q2.64,0,4.38,1.04t2.6,2.82t0.86,3.98q0,2.36-1.04,4.22t-2.76,2.92t-3.8,1.06l-11.4,0l0,11.4l-2.16,0z M45.64,34.68l11.08,0q2.52,0,4.12-1.66t1.6-4.54q0-1.88-0.62-3.22t-1.9-2.06t-3.2-0.72l-11.08,0l0,12.2z  M89.92,48.48q-4.2,0-7.06-1.6t-4.32-4.76t-1.46-7.84q0-7.04,3.4-10.62t9.52-3.58q3.64,0,6.34,1.12t4.18,3.36t1.48,5.64l-2.16,0q0-2.88-1.18-4.68t-3.4-2.66t-5.34-0.86q-3.08,0-5.48,1.2t-3.74,3.84t-1.34,7.04l0,0.84q0,4.2,1.34,6.76t3.74,3.72t5.52,1.16q3.08,0,5.3-0.86t3.42-2.66t1.2-4.68l2.12,0q0,3.48-1.56,5.72t-4.28,3.32t-6.24,1.08z M107.12,48l0-28.92l1.92,0l0,28.92l-1.92,0z M114.88,22.12l0-3.04l1.92,0l0,3.04l-1.92,0z M114.88,48l0-21.04l1.92,0l0,21.04l-1.92,0z M130.32,48.48q-2.84,0-4.86-1.18t-3.08-3.62t-1.06-6.2q0-3.8,1.06-6.22t3.14-3.6t5.12-1.18q2.88,0,4.82,1.16t2.94,3.3t1,5.06l0,2l-16.04,0q0,3.2,0.86,5.14t2.44,2.78t3.78,0.84q1.84,0,3.12-0.48t2.1-1.28t1.24-1.84t0.46-2.12l1.84,0q-0.04,1.36-0.54,2.68t-1.54,2.4t-2.72,1.72t-4.08,0.64z M123.36,36.28l14.04,0q0-2.28-0.52-3.82t-1.46-2.48t-2.2-1.36t-2.78-0.42q-2.2,0-3.74,0.86t-2.38,2.64t-0.96,4.58z M143.92,48l0-21.04l1.4,0l0.24,3.56l0.28,0q0.96-1.64,2.14-2.52t2.5-1.2t2.76-0.32q2,0,3.48,0.62t2.3,2.06t0.82,3.92l0,14.92l-1.92,0l0-14.92q0-1.52-0.4-2.48t-1.1-1.48t-1.64-0.72t-2.02-0.2q-1.72,0-3.32,0.84t-2.6,2.46t-1,3.98l0,12.52l-1.92,0z M169.64,48.44q-1.24,0-1.96-0.4t-1.02-1.18t-0.3-1.82l0-16.36l-2.96,0l0-1.72l2.96,0l0.4-5.84l1.52,0l0,5.84l4.28,0l0,1.72l-4.28,0l0,15.8q0,1.2,0.26,1.74t1.38,0.54l2.64,0l0,1.12q-0.4,0.2-0.92,0.32t-1.04,0.18t-0.96,0.06z"></path><rect x="0.9200000762939453" y="16.079999923706055" width="174.63998413085938" height="35.40001106262207" fill="transparent" pointer-events="all"></rect></g></svg>